<?xml version="1.0" standalone="no"?>
<!DOCTYPE svg PUBLIC "-//W3C//DTD SVG 20010904//EN"
 "http://www.w3.org/TR/2001/REC-SVG-20010904/DTD/svg10.dtd">
<svg version="1.0" xmlns="http://www.w3.org/2000/svg"
 width="818.000000pt" height="818.000000pt" viewBox="0 0 818.000000 818.000000"
 preserveAspectRatio="xMidYMid meet">
<metadata>
Created by potrace 1.11, written by Peter Selinger 2001-2013
</metadata>
<g transform="translate(0.000000,818.000000) scale(0.100000,-0.100000)"
fill="#000000" stroke="none">
<path d="M6330 6932 c0 -5 -9 -8 -20 -5 -11 3 -20 0 -20 -6 0 -6 -5 -11 -11
-11 -5 0 -7 6 -3 13 5 8 2 8 -9 -2 -10 -7 -17 -9 -17 -3 0 11 -18 11 -37 -1
-8 -5 -13 -3 -13 4 0 10 -3 10 -11 2 -6 -6 -18 -9 -25 -6 -8 3 -14 -1 -14 -8
0 -7 -3 -10 -6 -6 -4 3 -19 0 -34 -8 -20 -10 -30 -11 -39 -2 -8 8 -11 7 -11
-3 0 -13 -2 -13 -10 0 -7 11 -10 11 -10 2 0 -10 -5 -10 -20 -2 -14 8 -20 8
-20 0 0 -6 -4 -9 -9 -5 -5 3 -12 1 -16 -5 -4 -6 -11 -8 -16 -5 -5 4 -9 3 -9
-2 0 -4 -20 -7 -45 -6 -28 0 -45 -3 -45 -10 0 -8 -4 -7 -9 2 -6 9 -11 10 -15
2 -5 -8 -13 -8 -27 -1 -10 6 -19 7 -19 3 0 -4 -11 -13 -25 -20 -14 -6 -25 -7
-25 -2 0 6 -8 5 -20 -1 -15 -8 -20 -8 -20 1 0 8 -4 8 -15 -1 -9 -8 -15 -8 -15
-2 0 6 -25 0 -57 -13 -33 -13 -64 -20 -72 -16 -7 5 -32 5 -54 0 -23 -4 -45 -5
-49 -3 -5 3 -8 1 -8 -4 0 -5 -9 -12 -20 -15 -11 -3 -18 -1 -14 4 3 5 -5 5 -19
0 -14 -6 -28 -7 -31 -4 -3 3 -12 0 -21 -7 -9 -7 -15 -8 -15 -2 0 12 -67 -3
-87 -20 -9 -7 -13 -6 -13 3 0 11 -2 11 -10 -1 -5 -8 -10 -10 -10 -5 0 6 -9 11
-20 11 -11 0 -20 -3 -20 -6 0 -3 -12 -6 -27 -7 -45 -2 -67 -9 -71 -21 -2 -7
-11 -8 -26 -2 -12 4 -41 4 -67 -1 -24 -6 -52 -11 -61 -13 -10 -1 -21 -5 -24
-9 -4 -4 -12 -7 -18 -7 -6 0 -4 5 4 10 8 5 10 10 5 10 -6 0 -21 -7 -33 -16
-15 -10 -22 -11 -22 -3 0 8 -4 8 -15 -1 -11 -9 -15 -9 -15 -1 0 9 -5 9 -20 1
-14 -8 -20 -8 -20 0 0 6 -7 4 -16 -4 -8 -9 -20 -14 -25 -11 -5 4 -9 2 -9 -2 0
-5 -9 -9 -20 -9 -11 0 -20 5 -20 11 0 5 -5 3 -10 -5 -5 -8 -10 -10 -10 -5 0 6
-9 11 -20 11 -11 0 -20 -4 -20 -8 0 -4 -11 -8 -24 -8 -14 0 -28 -5 -31 -10 -4
-6 -11 -8 -16 -5 -5 4 -9 3 -9 -2 0 -4 -11 -8 -24 -8 -13 0 -22 3 -19 8 2 4
-1 7 -6 7 -6 0 -11 -4 -11 -8 0 -5 -10 -8 -22 -7 -13 1 -26 -3 -30 -9 -5 -7
-8 -6 -8 3 0 10 -4 11 -12 3 -7 -5 -26 -12 -43 -13 -16 -2 -33 -8 -37 -14 -5
-6 -8 -5 -8 4 0 11 -3 11 -15 1 -11 -9 -15 -9 -15 -1 0 9 -5 9 -20 1 -15 -8
-20 -8 -20 2 0 10 -2 10 -9 -1 -5 -7 -25 -14 -45 -15 -20 0 -36 -3 -36 -6 0
-3 -9 -6 -20 -6 -11 0 -20 4 -20 9 0 5 -6 4 -13 -2 -8 -6 -17 -8 -20 -4 -4 3
-7 0 -7 -8 0 -11 -2 -11 -10 1 -7 11 -10 11 -10 2 0 -7 -4 -11 -9 -7 -5 3 -15
0 -23 -7 -14 -14 -60 -19 -52 -6 3 4 0 8 -5 8 -6 0 -11 -4 -11 -9 0 -4 -11 -7
-25 -6 -14 2 -25 -2 -25 -8 0 -8 -3 -8 -8 1 -7 10 -18 9 -55 -7 -29 -13 -49
-16 -53 -10 -4 7 -10 6 -19 -1 -10 -8 -14 -7 -18 2 -4 10 -6 10 -6 -1 -1 -11
-4 -11 -16 -1 -12 10 -15 10 -15 0 0 -8 -3 -11 -6 -8 -3 4 -21 0 -39 -8 -26
-11 -34 -11 -38 -1 -3 9 -8 9 -20 -2 -13 -10 -17 -10 -17 -1 0 9 -3 10 -13 1
-8 -6 -17 -8 -20 -4 -4 3 -7 1 -7 -5 0 -7 -6 -11 -12 -10 -7 2 -12 -3 -10 -10
1 -8 -2 -11 -8 -7 -6 4 -25 -3 -44 -14 -18 -11 -37 -17 -41 -13 -5 4 -5 1 -1
-5 5 -9 0 -13 -13 -13 -11 0 -23 -5 -27 -12 -5 -7 -2 -8 7 -3 8 5 11 4 6 0 -4
-5 -17 -10 -29 -12 -12 -2 -30 -11 -39 -19 -10 -9 -23 -13 -30 -8 -7 4 -10 3
-7 -2 7 -10 -11 -27 -32 -32 -8 -2 -17 -8 -18 -13 -2 -5 -8 -7 -13 -3 -5 3 -9
1 -9 -4 0 -6 -12 -15 -27 -21 -16 -6 -37 -16 -48 -22 -11 -7 -27 -16 -35 -21
-8 -5 -23 -11 -32 -14 -10 -4 -18 -10 -18 -15 0 -5 -6 -9 -13 -9 -7 0 -23 -9
-35 -20 -12 -12 -22 -17 -22 -13 0 4 -7 -2 -16 -13 -8 -10 -13 -12 -9 -4 4 10
2 9 -8 -2 -8 -10 -17 -15 -20 -11 -4 3 -7 1 -7 -6 0 -7 -4 -10 -9 -7 -5 4 -11
1 -13 -4 -2 -6 -12 -12 -21 -14 -10 -1 -22 -9 -27 -16 -5 -8 -12 -11 -16 -8
-3 4 -15 -3 -26 -15 -11 -12 -17 -15 -13 -7 6 13 5 13 -7 0 -21 -24 -53 -47
-44 -32 7 11 4 11 -13 0 -12 -7 -21 -16 -21 -21 0 -4 -4 -5 -10 -2 -6 3 -10 1
-10 -4 0 -6 -6 -11 -14 -11 -8 0 -16 -7 -20 -15 -3 -8 -15 -15 -26 -15 -11 0
-20 -5 -20 -11 0 -5 -5 -7 -10 -4 -6 3 -13 -1 -16 -9 -3 -9 -10 -13 -15 -10
-5 3 -9 0 -9 -6 0 -6 -4 -9 -9 -5 -6 3 -14 -3 -20 -12 -6 -10 -11 -15 -11 -10
0 10 -100 -43 -100 -54 0 -5 -3 -8 -7 -7 -15 3 -43 -14 -37 -23 3 -5 2 -9 -3
-8 -22 4 -43 -2 -38 -11 3 -5 0 -7 -8 -4 -9 3 -21 -4 -29 -15 -8 -12 -18 -18
-21 -14 -4 3 -15 -1 -24 -10 -10 -8 -24 -17 -32 -19 -8 -2 -24 -11 -35 -20
-12 -10 -25 -17 -29 -17 -14 0 -97 -91 -97 -106 0 -8 -4 -15 -9 -15 -4 0 -7
-11 -6 -25 2 -14 -1 -25 -5 -25 -5 0 -7 -9 -5 -20 2 -11 -1 -20 -6 -20 -6 0
-6 -7 1 -19 5 -11 10 -29 10 -41 0 -12 3 -19 7 -17 5 3 8 -6 8 -19 0 -13 -3
-24 -7 -24 -3 0 -4 -9 -1 -20 3 -11 9 -20 14 -20 5 0 9 -5 9 -11 0 -5 -4 -8
-9 -4 -5 3 -2 -9 7 -27 19 -37 21 -56 10 -80 -5 -10 -3 -18 5 -21 9 -4 9 -6
-1 -6 -10 -1 -10 -5 0 -23 7 -13 18 -26 23 -30 7 -5 7 -8 0 -8 -5 0 -3 -5 5
-10 13 -9 13 -10 0 -10 -13 0 -13 -1 0 -10 13 -9 13 -10 0 -10 -13 0 -13 -1 0
-10 9 -6 10 -10 3 -10 -8 0 -9 -9 -3 -30 5 -16 6 -30 3 -30 -3 0 2 -11 11 -25
9 -14 12 -25 6 -25 -5 0 -10 -5 -10 -11 0 -5 4 -8 9 -5 4 3 6 -6 3 -19 -2 -15
0 -25 7 -25 8 0 9 -6 2 -18 -6 -10 -6 -24 -1 -32 5 -8 7 -17 4 -21 -2 -4 0
-10 6 -14 6 -4 8 -11 5 -16 -4 -5 -1 -9 6 -9 8 0 8 -4 -1 -15 -10 -12 -10 -15
0 -15 9 0 9 -4 -1 -17 -9 -11 -10 -14 -2 -9 9 5 12 -1 9 -24 -2 -22 2 -35 17
-45 12 -8 16 -15 9 -15 -10 0 -10 -5 -2 -20 8 -14 8 -20 0 -20 -7 0 -8 -6 -2
-17 5 -10 7 -30 6 -45 -2 -16 2 -28 8 -28 6 0 8 -3 5 -7 -4 -3 -2 -12 4 -20 9
-10 8 -13 -1 -13 -9 0 -10 -3 -1 -13 6 -8 8 -17 4 -20 -3 -4 -1 -7 7 -7 10 0
10 -3 -1 -17 -8 -9 -13 -18 -11 -19 11 -13 32 -77 27 -84 -4 -6 -1 -10 6 -10
7 0 8 -5 3 -12 -5 -7 -9 -20 -8 -28 1 -23 21 -67 34 -75 5 -3 7 -11 4 -17 -11
-17 -13 -77 -4 -83 5 -3 7 -12 3 -20 -3 -8 0 -15 6 -15 6 0 11 -14 11 -31 0
-17 5 -39 10 -50 6 -11 7 -19 1 -19 -9 0 7 -80 18 -90 11 -9 11 -30 0 -30 -8
0 -8 -5 1 -15 10 -12 10 -15 -1 -15 -12 0 -12 -2 0 -9 8 -5 12 -18 8 -30 -3
-12 -1 -19 4 -15 5 3 9 -4 9 -15 0 -12 6 -21 13 -21 9 0 9 -2 0 -8 -8 -5 -9
-13 -3 -22 5 -8 5 -19 0 -25 -6 -7 -4 -21 5 -38 9 -18 10 -29 3 -33 -7 -4 -5
-10 5 -16 9 -5 14 -15 11 -22 -3 -8 0 -17 6 -21 8 -5 8 -11 -1 -21 -9 -11 -9
-14 0 -14 9 0 9 -5 1 -20 -6 -11 -7 -20 -2 -20 5 0 9 -6 10 -12 2 -25 8 -48
15 -54 3 -4 2 -15 -4 -25 -5 -11 -6 -19 -2 -19 8 0 13 -23 16 -67 0 -7 5 -13
10 -13 5 0 7 -7 3 -15 -3 -8 0 -15 7 -15 8 0 8 -3 -2 -9 -10 -6 -10 -10 -1
-16 8 -5 9 -10 1 -14 -7 -5 -6 -15 4 -34 7 -15 10 -27 5 -27 -4 0 -6 -9 -3
-20 3 -11 9 -17 14 -15 4 3 6 -6 3 -20 -3 -16 0 -25 8 -25 9 0 8 -3 -2 -10 -8
-5 -10 -10 -5 -10 6 0 11 -9 11 -20 0 -11 -4 -20 -8 -20 -5 0 -2 -10 7 -23 8
-13 12 -27 8 -30 -3 -4 -1 -7 6 -7 7 0 9 -5 5 -12 -11 -18 -12 -48 -2 -48 5 0
6 -10 3 -21 -5 -14 -4 -19 4 -15 7 5 9 1 5 -8 -3 -9 -2 -16 4 -16 5 0 13 -7
16 -16 3 -8 2 -12 -4 -9 -11 7 -14 -8 -3 -19 4 -3 6 -27 6 -51 -1 -28 3 -43 9
-39 6 4 6 -1 -1 -13 -8 -16 -6 -24 8 -40 13 -14 16 -24 9 -36 -6 -11 -5 -17 2
-17 5 0 10 -5 10 -11 0 -5 -4 -8 -8 -5 -5 3 -9 -1 -9 -9 0 -8 4 -15 9 -15 5 0
6 -5 3 -10 -4 -6 0 -24 9 -40 10 -21 11 -30 3 -30 -9 0 -9 -2 -1 -8 6 -4 15
-17 18 -30 4 -12 18 -33 31 -46 13 -13 21 -27 18 -30 -4 -3 1 -6 10 -6 9 0 17
-5 17 -11 0 -5 4 -7 10 -4 6 3 10 -1 10 -9 0 -9 3 -15 8 -15 4 1 9 1 12 -1 16
-6 156 -4 147 2 -17 11 -3 10 27 -2 19 -7 26 -6 26 2 0 6 2 9 6 6 3 -3 28 3
55 13 28 11 48 16 45 11 -2 -4 14 -7 37 -6 23 1 43 7 45 13 2 6 8 8 13 5 6 -3
17 0 26 8 14 11 16 11 8 -2 -8 -13 -7 -13 8 -1 9 7 17 9 17 4 0 -6 11 -8 25
-5 14 2 22 9 19 14 -4 6 3 5 15 -1 16 -9 21 -9 21 1 0 9 3 9 10 -2 5 -8 10
-10 10 -3 0 6 9 9 20 6 12 -3 20 0 20 6 0 7 5 9 10 6 6 -3 10 -1 10 6 0 8 4 8
15 -1 9 -7 18 -10 22 -6 3 3 0 6 -7 6 -7 0 -10 3 -7 6 4 4 13 1 22 -6 11 -9
15 -9 15 -1 0 9 5 9 20 1 15 -8 20 -8 20 1 0 7 3 10 6 6 3 -3 23 1 44 8 21 7
41 11 44 8 3 -4 6 0 6 8 0 11 2 11 10 -1 8 -12 10 -12 10 -1 0 11 3 11 15 1
12 -10 15 -10 15 0 0 10 3 10 15 0 12 -10 15 -10 15 0 0 7 7 10 15 6 8 -3 15
0 15 6 0 6 3 8 7 5 3 -4 12 -2 20 4 10 9 13 8 13 -1 0 -9 4 -9 17 1 9 8 14 9
10 2 -5 -7 0 -9 13 -6 11 3 17 10 14 15 -4 6 3 5 15 -1 16 -9 21 -9 21 0 0 8
4 8 15 -1 12 -10 20 -9 40 4 14 9 25 14 25 10 0 -4 7 -1 15 6 13 11 14 10 9
-4 -4 -10 -1 -16 7 -16 11 0 11 -3 -1 -10 -8 -5 -11 -10 -7 -10 4 0 2 -10 -5
-22 -7 -13 -11 -26 -10 -30 1 -5 -3 -8 -9 -8 -8 0 -8 -5 1 -15 10 -12 10 -15
-1 -15 -11 0 -11 -2 1 -10 11 -7 11 -10 2 -10 -10 0 -10 -5 -2 -20 8 -15 8
-20 -2 -20 -9 0 -9 -3 2 -10 11 -7 11 -10 2 -10 -9 0 -10 -5 -4 -18 5 -9 7
-23 5 -29 -3 -7 1 -13 7 -13 6 0 10 -6 8 -12 -3 -7 4 -21 13 -32 10 -10 16
-24 12 -29 -3 -6 -1 -7 5 -3 6 3 13 -3 17 -14 3 -11 13 -20 21 -20 9 0 12 -5
8 -11 -4 -7 -1 -10 7 -7 8 3 22 -4 32 -15 9 -11 20 -17 24 -14 3 4 13 1 21 -6
13 -10 14 -9 7 3 -5 9 0 8 13 -4 12 -11 22 -15 22 -10 0 5 4 4 8 -3 4 -7 54
-12 139 -15 72 -2 126 0 120 4 -8 5 -8 8 -1 8 16 0 55 -36 47 -43 -10 -10 -9
-67 1 -67 5 0 3 -7 -4 -15 -7 -8 -8 -15 -3 -15 5 0 10 -7 10 -15 0 -8 -5 -15
-10 -15 -5 0 -4 -6 2 -14 9 -11 9 -15 -1 -19 -10 -4 -10 -6 1 -6 11 -1 11 -4
1 -16 -10 -12 -10 -15 0 -15 10 0 10 -3 1 -14 -9 -11 -9 -15 1 -19 10 -4 10
-6 -1 -6 -11 -1 -11 -4 -1 -16 7 -8 8 -15 3 -15 -5 0 -9 -9 -9 -20 0 -11 4
-20 9 -20 5 0 4 -7 -3 -15 -10 -12 -10 -15 0 -15 10 0 10 -3 0 -15 -10 -12
-10 -15 0 -15 8 0 10 -3 7 -6 -3 -4 0 -16 8 -28 8 -11 15 -35 15 -53 0 -23 6
-33 19 -38 11 -3 18 -12 15 -19 -3 -7 2 -20 10 -29 9 -9 16 -20 16 -26 0 -6 9
-16 20 -23 11 -7 20 -19 20 -26 0 -7 4 -11 9 -8 4 3 19 -3 31 -14 12 -11 27
-17 31 -14 5 3 9 0 9 -6 0 -8 6 -8 20 0 11 6 20 7 20 2 0 -4 10 -8 22 -9 12
-1 28 -8 36 -16 10 -11 23 -12 48 -7 25 6 39 4 49 -7 8 -8 15 -11 15 -8 0 4
10 0 23 -8 15 -10 29 -12 38 -7 8 6 16 4 21 -3 6 -9 8 -9 8 1 0 9 5 10 19 2
14 -7 22 -7 27 1 5 8 8 8 14 0 3 -7 19 -14 35 -17 16 -3 32 -7 36 -10 4 -2 10
0 14 6 4 7 12 7 24 0 10 -5 21 -7 24 -3 4 3 1 -8 -5 -25 -7 -17 -16 -28 -22
-25 -5 3 -6 2 -3 -4 3 -5 0 -21 -8 -36 -7 -14 -11 -28 -7 -31 3 -3 0 -6 -6 -6
-7 0 -12 -5 -12 -11 0 -6 6 -7 13 -2 6 4 4 -5 -6 -20 -12 -19 -14 -27 -5 -27
8 -1 5 -7 -6 -15 -19 -14 -32 -60 -14 -49 4 3 8 0 8 -5 0 -6 -4 -11 -9 -11 -6
0 -6 -12 -1 -30 5 -16 5 -30 1 -30 -3 0 -7 -9 -7 -20 0 -11 3 -20 7 -20 9 0 6
-27 -4 -36 -3 -4 -2 -15 4 -25 7 -14 6 -19 -3 -19 -8 -1 -7 -5 4 -14 10 -7 15
-16 11 -19 -3 -4 -1 -7 6 -7 8 0 11 -6 7 -16 -3 -8 -2 -12 4 -9 6 3 10 -3 10
-14 0 -12 7 -21 15 -21 8 0 15 -4 15 -10 0 -5 7 -10 16 -10 8 0 13 -4 10 -9
-5 -8 11 -19 37 -26 4 -2 10 -4 15 -5 4 -1 10 -2 15 -1 4 0 7 -4 7 -10 0 -8 4
-8 14 0 11 9 15 9 18 0 4 -12 9 -14 88 -25 25 -3 48 -8 53 -11 4 -2 7 2 7 9 0
9 3 9 10 -2 7 -11 10 -12 10 -2 0 8 9 12 25 10 15 -2 30 4 39 17 9 11 16 14
16 7 0 -8 15 -2 40 14 22 15 39 29 36 31 -2 2 10 19 28 36 38 39 59 75 51 87
-4 6 0 10 7 10 9 0 9 3 -2 10 -11 7 -11 10 -2 10 7 0 11 4 8 9 -3 5 1 12 10
15 8 3 12 10 9 16 -3 5 -1 10 5 10 7 0 8 6 1 19 -6 10 -7 21 -4 25 11 11 12
36 1 36 -6 0 -4 7 3 17 12 14 12 15 1 9 -11 -7 -12 -4 -5 10 8 17 9 42 3 69
-1 6 -1 12 0 15 7 20 7 40 -2 40 -6 0 -4 7 3 17 10 11 10 14 2 9 -7 -4 -13 -2
-13 3 0 6 4 11 8 11 4 0 8 9 8 20 0 11 -4 20 -9 20 -4 0 -2 6 5 14 7 8 16 12
19 10 14 -8 110 -11 115 -3 3 5 14 5 24 -1 13 -7 20 -6 23 3 4 9 6 9 6 0 1 -7
6 -13 12 -13 5 0 8 4 5 8 -3 4 8 13 25 19 16 6 27 8 24 3 -3 -4 4 -6 15 -3 11
3 20 9 20 14 0 5 5 9 11 9 5 0 7 -6 3 -12 -5 -9 -2 -9 9 1 9 7 17 9 17 4 0 -6
11 -8 25 -5 14 2 23 8 20 11 -2 4 6 7 18 6 12 -1 25 3 29 9 5 7 8 7 8 -2 0 -8
5 -10 13 -5 6 4 23 9 36 11 14 2 32 8 40 13 13 9 12 9 -4 4 -11 -3 -16 -3 -12
1 4 5 32 8 62 9 29 0 52 -1 50 -4 -3 -2 7 -15 21 -28 14 -12 22 -23 19 -23 -3
0 6 -12 20 -27 14 -15 25 -31 25 -35 0 -5 7 -8 15 -8 8 0 15 -3 15 -7 0 -14
47 -63 54 -56 3 3 6 0 6 -7 0 -7 2 -11 5 -8 3 3 25 -12 48 -33 23 -22 48 -37
55 -34 7 2 10 0 7 -5 -3 -6 1 -10 9 -10 9 0 16 -5 16 -12 0 -6 3 -8 7 -5 3 4
21 -3 40 -14 21 -13 33 -16 33 -9 0 9 3 10 13 1 8 -6 17 -8 20 -4 4 3 7 1 7
-6 0 -9 13 -12 44 -10 24 2 42 1 39 -3 -2 -5 1 -8 6 -8 6 0 11 5 11 12 0 6 3
8 7 5 3 -4 12 -2 19 4 8 6 21 9 29 5 8 -3 15 -1 15 4 0 6 5 10 11 10 5 0 7 -6
3 -12 -5 -9 -3 -9 9 1 9 7 14 17 11 22 -3 5 1 9 8 9 14 0 47 29 103 91 17 17
23 29 15 25 -8 -4 -6 0 4 8 11 9 17 16 13 16 -4 0 0 11 9 25 9 14 12 25 8 25
-5 0 -2 5 6 10 12 8 12 10 1 10 -9 0 -10 4 -4 13 18 23 21 56 6 76 -11 17 -11
21 -1 21 8 0 9 3 3 8 -5 4 -11 14 -13 22 -2 8 -8 17 -13 18 -5 2 -7 7 -4 12 3
5 -17 32 -45 61 -27 29 -50 48 -50 43 0 -5 -5 -1 -11 9 -5 9 -16 17 -22 17 -7
0 -19 9 -27 20 -8 11 -20 20 -27 20 -7 0 -13 5 -13 11 0 5 -4 8 -9 4 -5 -3
-12 -1 -16 5 -4 6 -11 8 -16 5 -5 -4 -9 -2 -9 3 0 8 -36 23 -62 26 -4 1 -14
10 -22 21 -12 15 -15 16 -16 5 0 -13 -1 -13 -10 0 -9 13 -10 13 -10 0 -1 -12
-3 -11 -11 3 -5 9 -16 17 -24 17 -7 0 -16 6 -18 13 -4 8 -6 8 -6 0 -2 -22 -58
16 -63 42 -3 14 -1 25 3 25 5 0 9 5 9 11 0 5 -4 7 -10 4 -5 -3 -7 0 -4 9 9 22
10 185 2 179 -5 -2 -8 1 -8 6 0 6 5 11 11 11 8 0 7 5 -2 16 -7 9 -15 28 -17
43 -2 14 -7 27 -13 29 -5 2 -5 11 1 23 8 13 7 19 0 19 -7 0 -8 6 -1 18 7 14 6
25 -5 40 -8 12 -12 22 -7 22 4 0 2 4 -4 8 -10 6 -10 12 3 28 8 10 13 13 9 7
-7 -14 7 -18 19 -6 9 10 36 13 36 4 0 -4 9 -7 20 -7 11 0 20 4 20 8 0 4 9 8
19 8 11 0 23 5 26 10 4 6 11 8 16 5 5 -4 9 -2 9 4 0 6 7 8 15 5 8 -4 17 1 21
10 3 9 10 13 15 10 5 -3 12 2 15 10 3 9 10 14 14 11 5 -3 11 4 15 15 3 11 11
20 16 20 6 0 8 4 5 9 -3 5 1 12 10 15 9 4 14 9 11 13 -4 3 2 20 13 38 11 18
17 35 13 38 -3 4 -1 7 6 7 7 0 9 5 5 11 -3 6 -2 14 3 18 6 3 13 26 16 50 4 29
2 40 -4 30 -12 -19 -11 -7 1 25 8 21 7 26 -7 26 -9 0 -13 3 -10 7 4 3 -1 15
-10 26 -13 15 -14 18 -3 12 13 -8 13 -6 1 8 -7 9 -18 14 -24 10 -6 -3 -7 -1
-3 5 7 11 -49 72 -66 72 -6 0 -19 10 -30 23 -11 12 -16 15 -12 7 5 -10 0 -9
-14 4 -12 11 -22 15 -22 11 0 -4 -9 0 -20 10 -14 13 -20 14 -20 5 0 -11 -3
-10 -12 2 -17 20 -48 31 -48 16 0 -6 -12 -1 -27 13 -14 13 -22 17 -18 9 5 -10
1 -8 -13 4 -12 11 -22 15 -22 10 0 -5 -9 -10 -20 -10 -11 0 -20 5 -20 10 0 5
-3 6 -6 3 -4 -3 -16 -1 -28 5 -24 14 -56 15 -74 4 -6 -4 -12 -3 -12 2 0 4 -24
9 -52 11 -68 2 -80 6 -96 32 -12 18 -10 24 20 51 18 16 26 27 18 23 -8 -3 -6
1 4 9 11 9 16 16 12 16 -5 0 3 9 18 21 14 11 26 27 26 35 0 8 5 12 10 9 6 -3
10 -1 10 5 0 6 6 17 13 25 21 22 49 63 49 72 0 4 6 12 14 16 8 5 12 12 9 18
-4 5 -1 9 4 9 6 0 11 7 11 15 0 8 4 15 10 15 5 0 20 16 33 35 13 19 27 32 30
29 4 -4 5 3 2 15 -2 14 1 21 11 21 8 0 13 4 10 9 -3 5 6 21 21 37 15 16 27 31
27 34 1 3 5 4 10 2 5 -2 6 4 3 12 -3 8 1 17 9 20 9 3 12 10 9 16 -3 5 1 10 10
10 9 0 13 5 10 11 -4 6 0 16 8 22 9 7 17 18 19 26 2 8 10 22 18 32 34 40 40
49 40 59 0 5 5 10 12 10 6 0 9 3 5 6 -3 3 3 15 13 27 11 12 19 26 19 30 0 5 9
17 21 27 13 11 19 24 14 31 -4 8 -3 9 4 5 11 -6 14 0 11 20 0 4 3 10 8 13 5 3
23 27 40 53 16 26 33 45 37 41 5 -6 10 20 7 40 0 4 4 7 11 7 6 0 8 3 5 7 -4 3
0 11 8 17 7 6 15 18 17 26 2 8 11 23 21 35 10 11 16 28 13 37 -2 11 1 18 11
18 8 0 11 4 8 10 -3 5 0 10 7 10 9 0 9 3 -2 10 -8 5 -10 10 -4 10 7 0 15 7 18
16 4 10 2 13 -7 8 -9 -6 -9 -4 1 8 10 13 10 17 0 22 -11 5 -11 7 0 12 10 5 10
9 1 20 -9 11 -9 14 1 14 10 0 10 3 0 15 -9 10 -9 15 -1 15 6 0 11 5 11 11 0 5
-4 8 -8 5 -4 -2 -8 4 -8 14 0 10 4 16 9 13 5 -3 4 3 -2 14 -7 14 -7 23 1 31 9
9 9 12 -1 12 -7 0 -9 5 -6 10 3 6 2 10 -4 10 -6 0 -7 7 -4 17 5 11 3 14 -6 8
-10 -6 -11 -3 -2 14 7 12 8 21 2 21 -5 0 -9 24 -8 54 1 42 -3 60 -18 77 -14
16 -16 23 -7 26 6 3 12 9 12 14 0 6 -5 7 -11 3 -8 -5 -8 -1 0 14 7 13 7 23 2
27 -6 3 -8 14 -6 25 2 11 0 20 -6 20 -5 0 -9 9 -9 21 0 11 -4 18 -8 15 -4 -2
-8 4 -8 14 0 10 3 17 6 15 4 -2 5 6 4 18 -1 12 -3 22 -4 22 -2 0 -5 15 -13 57
-3 15 -9 33 -13 39 -4 6 -7 38 -6 70 0 33 -4 59 -10 59 -5 0 -7 4 -3 9 3 5 1
13 -5 16 -7 4 -7 12 -2 18 10 14 9 17 -8 80 -7 26 -17 47 -22 47 -6 0 -4 8 3
17 12 15 12 16 -1 8 -13 -8 -13 -7 -1 8 11 14 11 17 0 17 -10 0 -10 3 -2 11 8
8 9 17 1 33 -28 54 -29 58 -19 51 6 -3 11 -1 11 4 0 6 -5 11 -11 11 -6 0 -9
24 -8 61 1 35 -2 64 -8 67 -6 4 -12 27 -14 52 -1 25 -6 53 -11 62 -5 10 -3 19
5 22 9 5 9 7 0 12 -7 3 -13 12 -13 20 0 8 -5 14 -11 14 -6 0 -7 5 -2 13 11 18
10 39 -5 70 -9 19 -9 27 -1 27 8 0 8 4 -1 15 -7 8 -9 15 -5 15 5 0 0 9 -10 20
-14 15 -15 20 -4 20 11 0 11 2 -1 10 -13 9 -13 10 0 10 13 0 13 1 0 10 -13 9
-13 10 0 10 13 0 13 1 0 10 -13 9 -13 10 0 10 12 0 13 2 1 9 -10 7 -10 10 -1
13 10 3 9 7 -2 18 -16 17 -31 63 -17 54 5 -3 9 0 9 5 0 6 -5 11 -11 11 -5 0
-7 5 -4 10 3 6 1 10 -5 10 -8 0 -8 6 0 20 8 15 8 20 -2 20 -9 0 -9 3 2 10 10
6 11 10 3 10 -7 0 -13 7 -13 16 0 9 -5 12 -12 8 -9 -5 -9 -2 1 9 10 13 10 17
1 17 -10 0 -10 3 0 15 7 8 8 15 3 15 -8 0 -12 21 -13 75 -1 10 -6 25 -11 32
-6 6 -8 16 -5 22 3 5 0 12 -6 14 -10 4 -9 6 1 6 11 1 11 4 1 16 -8 10 -9 15
-1 15 7 0 8 8 1 26 -6 14 -7 30 -4 36 4 7 2 8 -4 4 -8 -5 -12 5 -12 33 0 23
-4 41 -8 41 -4 0 -8 9 -8 20 0 11 3 20 6 20 3 0 6 9 6 19 0 11 -3 18 -7 15 -4
-2 -12 3 -19 11 -10 12 -10 15 0 15 10 0 10 3 0 15 -7 8 -8 15 -3 15 14 0 9
40 -6 50 -11 6 -11 9 0 13 9 4 10 6 2 6 -7 1 -10 8 -7 16 4 8 1 15 -5 15 -6 0
-11 16 -11 35 0 19 -4 35 -9 35 -5 0 -14 14 -20 31 -6 17 -15 28 -21 24 -6 -4
-9 -1 -8 6 2 7 -12 23 -31 36 -19 12 -30 23 -25 23 5 0 2 4 -6 10 -9 5 -19 5
-27 -2 -9 -8 -13 -7 -13 2 0 8 -3 10 -7 7 -3 -4 -12 -2 -20 4 -8 7 -13 8 -13
1z"/>
<path d="M7526 968 c-18 -25 -21 -42 -6 -33 6 3 10 -1 10 -9 0 -23 52 -17 58
6 2 10 8 18 13 18 5 0 4 9 -3 20 -17 27 -53 25 -72 -2z"/>
<path d="M7350 759 c0 -5 -4 -8 -9 -5 -10 7 -44 -29 -47 -50 -1 -8 8 -21 20
-30 28 -17 76 -4 76 21 0 9 5 13 10 10 16 -10 12 22 -5 38 -8 8 -11 17 -8 21
4 3 -3 6 -15 6 -12 0 -22 -5 -22 -11z"/>
</g>
</svg>
